<svg xmlns="http://www.w3.org/2000/svg" viewBox="0 0 400 300" fill="none">
  <rect width="400" height="300" fill="#0a0a0a"/>
  <!-- Pipeline/template visualization -->
  <rect x="60" y="80" width="80" height="50" rx="4" stroke="#f97316" stroke-width="3" fill="none"/>
  <rect x="160" y="80" width="80" height="50" rx="4" stroke="#f97316" stroke-width="3" fill="none"/>
  <rect x="260" y="80" width="80" height="50" rx="4" stroke="#f97316" stroke-width="3" fill="none"/>
  <!-- Arrows -->
  <path d="M140 105 L160 105" stroke="#f97316" stroke-width="3"/>
  <path d="M240 105 L260 105" stroke="#f97316" stroke-width="3"/>
  <!-- Code lines inside boxes -->
  <line x1="75" y1="95" x2="125" y2="95" stroke="#ffffff" stroke-width="2"/>
  <line x1="75" y1="105" x2="115" y2="105" stroke="#ffffff" stroke-width="2"/>
  <line x1="75" y1="115" x2="120" y2="115" stroke="#ffffff" stroke-width="2"/>
  <line x1="175" y1="95" x2="225" y2="95" stroke="#ffffff" stroke-width="2"/>
  <line x1="175" y1="105" x2="215" y2="105" stroke="#ffffff" stroke-width="2"/>
  <line x1="175" y1="115" x2="220" y2="115" stroke="#ffffff" stroke-width="2"/>
  <line x1="275" y1="95" x2="325" y2="95" stroke="#ffffff" stroke-width="2"/>
  <line x1="275" y1="105" x2="315" y2="105" stroke="#ffffff" stroke-width="2"/>
  <line x1="275" y1="115" x2="320" y2="115" stroke="#ffffff" stroke-width="2"/>
  <!-- Reuse arrows -->
  <path d="M100 150 L100 180 L200 180 L200 150 M300 150 L300 180 L200 180" stroke="#f97316" stroke-width="2" stroke-dasharray="6"/>
  <circle cx="200" cy="200" r="20" stroke="#f97316" stroke-width="3" fill="none"/>
  <text x="200" y="207" font-family="system-ui" font-size="16" font-weight="700" fill="#f97316" text-anchor="middle">T</text>
  <!-- Label -->
  <text x="200" y="260" font-family="system-ui" font-size="18" font-weight="700" fill="#ffffff" text-anchor="middle">PIPELINE TEMPLATES</text>
</svg>
